<svg width="200" height="17" viewBox="0 0 200 17" fill="none" xmlns="http://www.w3.org/2000/svg">
<g clip-path="url(#clip0_0_14)">
<path d="M34.916 2.95652C35.3543 2.51304 35.9386 2.21739 36.523 2.21739H36.8152C37.3996 2.21739 37.9839 2.36522 38.4222 2.66087C38.8605 2.95652 39.1527 3.4 39.1527 3.84348C39.1527 4.28696 39.2988 4.43478 39.5909 4.58261C39.8831 4.73043 40.0292 4.87826 40.3214 4.87826C40.6136 4.87826 40.9058 4.73043 41.0519 4.58261C41.344 4.43478 41.344 4.13913 41.344 3.69565V3.84348C41.344 3.25217 41.198 2.8087 40.9058 2.36522C40.6136 1.92174 40.3214 1.47826 39.8831 1.18261C39.4448 0.886957 39.0066 0.591304 38.4222 0.443478C38.13 0.147826 37.5457 0 36.8152 0H36.523C35.9386 0 35.2082 0.147826 34.7699 0.295652C34.1855 0.591304 33.7473 0.886956 33.309 1.33043C32.8707 1.77391 32.5785 2.21739 32.2863 2.8087C31.9942 3.4 31.8481 3.9913 31.8481 4.58261V12.2696C31.8481 12.8609 31.9942 13.6 32.2863 14.0435C32.5785 14.6348 32.8707 15.0783 33.309 15.5217C33.7473 15.9652 34.1855 16.2609 34.7699 16.5565C35.3543 16.8522 35.9386 16.8522 36.6691 16.8522H36.9613C37.5456 16.8522 38.2761 16.7043 38.7144 16.4087C39.2988 16.113 39.737 15.8174 40.1753 15.3739C40.6136 14.9304 40.9058 14.487 41.198 13.8957C41.4901 13.3043 41.6362 12.713 41.6362 11.9739V8.72174C41.6362 8.42609 41.4901 8.13043 41.344 7.83478C41.0519 7.53913 40.9058 7.53913 40.4675 7.53913H37.3996C36.9613 7.53913 36.6691 7.68696 36.523 7.83478C36.3769 8.13043 36.2308 8.27826 36.2308 8.57391C36.2308 8.86957 36.3769 9.16522 36.523 9.31304C36.6691 9.6087 36.9613 9.6087 37.3996 9.6087H39.2988V12.1217C39.2988 12.4174 39.2988 12.713 39.1527 13.0087C39.0066 13.3043 38.8605 13.6 38.5683 13.7478C38.4222 13.8957 38.13 14.1913 37.8378 14.3391C37.5456 14.487 37.2535 14.487 36.9613 14.487H36.6691C36.0847 14.487 35.5004 14.1913 35.0621 13.7478C34.6238 13.3043 34.3316 12.713 34.3316 12.1217V4.58261C34.1855 3.9913 34.4777 3.4 34.916 2.95652Z" fill="#272524"/>
<path d="M60.1899 7.83466C60.4821 7.39118 60.6282 6.94771 60.7743 6.50423C60.9204 6.06075 60.9204 5.46944 60.9204 5.02597V4.87814C60.9204 4.28684 60.7743 3.5477 60.4821 3.10423C60.1899 2.51292 59.8977 2.06944 59.4595 1.62597C59.0212 1.18249 58.5829 0.886836 57.9985 0.591183C57.4142 0.295531 56.8298 0.147705 56.2454 0.147705H52.3009C52.0088 0.147705 51.7166 0.295531 51.5705 0.443357C51.2783 0.739009 51.2783 0.886836 51.2783 1.18249V15.8173C51.2783 16.2607 51.4244 16.5564 51.5705 16.7042C51.8627 16.8521 52.0088 16.9999 52.447 16.9999C52.7392 16.9999 53.0314 16.8521 53.1775 16.7042C53.4697 16.5564 53.4697 16.2607 53.4697 15.8173V9.7564H55.3689L58.4368 16.4086C58.5829 16.7042 58.729 16.8521 58.8751 16.8521C59.0212 16.9999 59.1673 16.9999 59.4595 16.9999C59.8977 16.9999 60.1899 16.8521 60.336 16.7042C60.4821 16.5564 60.6282 16.2607 60.6282 15.8173C60.6282 15.6694 60.6282 15.5216 60.4821 15.3738L57.7063 9.60857C58.4368 9.46075 58.8751 9.1651 59.3134 8.86944C59.6055 8.57379 59.8977 8.27814 60.1899 7.83466ZM58.729 5.02597C58.729 5.61727 58.5829 6.20857 58.1446 6.65205C57.7063 7.09553 57.122 7.39118 56.5376 7.39118H53.6158V2.51292H56.3915C56.9759 2.51292 57.5603 2.80857 57.9985 3.25205C58.4368 3.69553 58.729 4.28684 58.729 5.02597Z" fill="#272524"/>
<path d="M78.7436 1.33043C78.3053 0.886956 77.8671 0.591304 77.2827 0.295652C76.6983 0.147826 76.114 0 75.3835 0H75.2374C74.653 0 73.9226 0.147826 73.3382 0.295652C72.7538 0.591304 72.3156 0.886956 71.8773 1.33043C71.439 1.77391 71.1468 2.21739 70.8546 2.8087C70.5625 3.4 70.4164 3.9913 70.4164 4.58261V12.2696C70.4164 12.8609 70.5625 13.6 70.8546 14.0435C71.1468 14.6348 71.439 15.0783 71.8773 15.5217C72.3156 15.9652 72.7538 16.2609 73.3382 16.5565C73.9226 16.8522 74.5069 16.8522 75.0913 16.8522H75.3835C75.9679 16.8522 76.6983 16.7043 77.1366 16.5565C77.721 16.2609 78.1592 15.9652 78.5975 15.5217C79.0358 15.0783 79.328 14.6348 79.6202 14.0435C79.9123 13.4522 80.0584 12.8609 80.0584 12.2696V4.58261C80.0584 3.9913 79.9123 3.4 79.6202 2.8087C79.4741 2.21739 79.1819 1.77391 78.7436 1.33043ZM77.8671 12.4174C77.8671 13.1565 77.5749 13.6 77.1366 14.0435C76.6983 14.487 76.114 14.7826 75.5296 14.7826H75.2374C74.653 14.7826 74.0687 14.487 73.6304 14.0435C73.1921 13.6 72.8999 13.0087 72.8999 12.4174V4.58261C72.8999 3.9913 73.1921 3.4 73.6304 2.95652C74.0687 2.51304 74.653 2.21739 75.2374 2.21739H75.5296C76.114 2.21739 76.6983 2.36522 77.1366 2.8087C77.5749 3.25217 77.8671 3.84348 77.8671 4.43478V12.4174Z" fill="#272524"/>
<path d="M95.3981 15.9652L98.9043 1.47826C98.9043 1.33043 98.9043 1.33043 98.9043 1.18261C98.9043 0.886957 98.7582 0.591304 98.6121 0.443478C98.3199 0.147826 98.0278 0 97.7356 0C97.4434 0 97.2973 0 97.1512 0.147826C97.0051 0.295652 96.859 0.443478 96.7129 0.886957L94.0833 11.9739L91.4536 0.886957C91.3075 0.591304 91.1614 0.295652 91.0153 0.147826C90.8693 0 90.5771 0 90.431 0C90.1388 0 89.8466 0.147826 89.5544 0.295652C89.2622 0.591304 89.1161 0.886957 89.1161 1.18261C89.1161 1.33043 89.1161 1.47826 89.1161 1.47826L92.6224 16.113C92.7685 16.4087 92.9145 16.7043 93.0606 16.8522C93.3528 17 93.645 17.1478 93.9372 17.1478C94.2294 17.1478 94.5216 17 94.8137 16.8522C95.1059 16.5565 95.252 16.4087 95.3981 15.9652Z" fill="#272524"/>
<path d="M109.569 16.8521H116.874C117.312 16.8521 117.604 16.7042 117.75 16.5564C117.896 16.2607 118.042 16.1129 118.042 15.8173C118.042 15.5216 117.896 15.226 117.75 15.0781C117.604 14.7825 117.312 14.7825 116.874 14.7825H110.738V9.46075H114.974C115.413 9.46075 115.705 9.31292 115.851 9.1651C115.997 8.86945 116.143 8.72162 116.143 8.42597C116.143 8.13032 115.997 7.83466 115.851 7.68684C115.705 7.39118 115.413 7.39119 114.974 7.39119H110.738V2.51292H116.874C117.312 2.51292 117.604 2.3651 117.75 2.21727C117.896 1.92162 118.042 1.77379 118.042 1.47814C118.042 1.18249 117.896 0.886838 117.75 0.739012C117.604 0.443359 117.312 0.443359 116.874 0.443359H109.569C109.277 0.443359 108.985 0.591185 108.839 0.739012C108.546 1.03466 108.546 1.18249 108.546 1.47814V15.9651C108.546 16.2608 108.692 16.5564 108.839 16.7042C108.985 16.7042 109.277 16.8521 109.569 16.8521Z" fill="#272524"/>
<path d="M138.349 16.7043C138.641 16.8522 138.787 17 139.08 17C139.372 17 139.664 16.8522 139.81 16.7043C140.102 16.5565 140.102 16.2609 140.102 15.8174V1.18261C140.102 0.886957 139.956 0.591304 139.81 0.443478C139.81 0.147826 139.518 0 139.226 0H138.934C138.641 0 138.349 0 138.203 0.147826C138.057 0.295652 137.911 0.443478 137.765 0.73913L134.259 8.72174L130.752 0.73913C130.46 0.295652 130.168 0 129.584 0H129.291C128.999 0 128.707 0.147826 128.561 0.295652C128.269 0.591304 128.269 0.73913 128.269 1.03478V15.6696C128.269 16.113 128.415 16.4087 128.561 16.5565C128.853 16.7043 128.999 16.8522 129.291 16.8522C129.584 16.8522 129.876 16.7043 130.022 16.5565C130.314 16.4087 130.314 16.113 130.314 15.6696V5.32174L132.944 11.3826C133.09 11.6783 133.236 11.8261 133.382 11.9739C133.528 12.1217 133.82 12.1217 134.112 12.1217C134.405 12.1217 134.551 12.1217 134.843 11.9739C135.135 11.8261 135.281 11.6783 135.281 11.3826L137.911 5.32174V15.6696C138.057 16.2609 138.203 16.5565 138.349 16.7043Z" fill="#272524"/>
<path d="M156.465 0.147826C156.172 0 155.88 0 155.588 0C155.296 0 155.004 0.147826 154.858 0.295652C154.565 0.443478 154.419 0.73913 154.273 1.03478L149.744 15.6696C149.744 15.8174 149.744 15.9652 149.744 16.113C149.744 16.4087 149.89 16.7043 150.037 16.8522C150.183 17 150.475 17.1478 150.913 17.1478C151.205 17.1478 151.351 17.1478 151.644 17C151.936 16.8522 152.082 16.7043 152.082 16.4087L153.104 13.1565H158.364L159.386 16.4087C159.533 16.7043 159.679 16.8522 159.825 17C159.971 17.1478 160.263 17.1478 160.409 17.1478C160.701 17.1478 160.993 17 161.286 16.8522C161.432 16.7043 161.578 16.4087 161.578 16.113C161.578 15.9652 161.578 15.9652 161.578 15.8174L157.049 1.18261C156.903 0.591304 156.757 0.295652 156.465 0.147826ZM153.689 10.6435L155.588 4.28696L157.487 10.6435H153.689Z" fill="#272524"/>
<path d="M177.648 0.443357C177.064 0.147705 176.479 0.147705 175.895 0.147705H172.096C171.804 0.147705 171.512 0.295531 171.366 0.443357C171.074 0.739009 171.074 0.886836 171.074 1.18249V15.6694C171.074 15.9651 171.22 16.2607 171.366 16.4086C171.658 16.7042 171.804 16.7042 172.096 16.7042H175.895C176.479 16.7042 177.21 16.5564 177.648 16.4086C178.232 16.1129 178.671 15.8173 179.109 15.5216C179.547 15.226 179.839 14.6347 180.131 14.0434C180.424 13.4521 180.57 12.8607 180.57 12.1216V4.87814C180.57 4.13901 180.424 3.54771 180.131 2.9564C179.839 2.3651 179.547 1.92162 179.109 1.47814C178.817 1.03466 178.232 0.739009 177.648 0.443357ZM178.232 12.1216C178.232 12.4173 178.232 12.7129 178.086 13.0086C177.94 13.3042 177.794 13.5999 177.502 13.7477C177.356 13.8955 177.064 14.1912 176.771 14.339C176.479 14.4868 176.187 14.4868 175.895 14.4868H173.265V2.51292H175.895C176.187 2.51292 176.479 2.51292 176.771 2.66075C177.064 2.80857 177.356 2.9564 177.502 3.25205C177.648 3.39988 177.94 3.69553 178.086 3.99118C178.232 4.28684 178.232 4.58249 178.232 4.87814V12.1216Z" fill="#272524"/>
<path d="M198.831 2.51292C199.27 2.51292 199.562 2.3651 199.708 2.21727C199.854 1.92162 200 1.77379 200 1.47814C200 1.18249 199.854 0.886838 199.708 0.739012C199.562 0.443359 199.27 0.443359 198.831 0.443359H191.527C191.235 0.443359 190.942 0.591185 190.796 0.739012C190.504 1.03466 190.504 1.18249 190.504 1.47814V15.9651C190.504 16.2608 190.65 16.5564 190.796 16.7042C191.088 16.9999 191.235 16.9999 191.527 16.9999H198.831C199.27 16.9999 199.562 16.8521 199.708 16.7042C199.854 16.4086 200 16.2608 200 15.9651C200 15.6694 199.854 15.3738 199.708 15.226C199.562 14.9303 199.27 14.9303 198.831 14.9303H192.695V9.46075H196.932C197.37 9.46075 197.663 9.31292 197.809 9.1651C197.955 8.86945 198.101 8.72162 198.101 8.42597C198.101 8.13032 197.955 7.83466 197.809 7.68684C197.663 7.39119 197.37 7.39119 196.932 7.39119H192.695V2.51292H198.831Z" fill="#272524"/>
<path d="M11.5413 16.5566V16.4088C11.5413 16.5566 9.93426 12.4175 9.34989 11.8262C8.03506 10.4957 6.57414 10.6436 5.5515 10.6436H0.584368C0.292184 10.6436 0 10.7914 0 11.087V11.2349C0 11.2349 1.60701 15.374 2.19138 15.8175C3.36012 17.0001 4.38276 17.0001 5.98977 17.0001H11.103C11.3952 17.0001 11.5413 16.8523 11.5413 16.5566Z" fill="#272524"/>
<path d="M20.0146 11.3826C20.0146 8.27826 16.8006 1.47826 16.3623 0.295652C16.3623 0.147826 16.2162 0 15.924 0C15.7779 0 15.4858 0.147826 15.4858 0.295652C13.2944 5.46957 11.6874 9.31304 11.6874 9.31304C11.5413 9.75652 11.3952 10.2 11.5413 10.6435C11.6874 11.087 12.5639 12.8609 13.1483 14.3391C14.0248 16.4087 14.1709 17 16.0701 17C18.4076 17 20.0146 14.9304 20.0146 11.3826Z" fill="#272524"/>
</g>
<defs>
<clipPath id="clip0_0_14">
<rect width="200" height="17" fill="white"/>
</clipPath>
</defs>
</svg>
